<?xml version="1.0"?>
<svg xmlns="http://www.w3.org/2000/svg" xmlns:xlink="http://www.w3.org/1999/xlink" version="1.1" id="Layer_1" x="0px" y="0px" viewBox="0 0 496 496" style="enable-background:new 0 0 496 496;" xml:space="preserve" width="512px" height="512px" class=""><g><g><path style="fill:#FFFFFF" d="M455.9,128c-22.4-38.4-62.4-60-104-60c-20.8-36-59.2-60.8-104-60.8S164.7,32,143.9,68  c-41.6,0-81.6,21.6-104,60s-20.8,84,0,120c-20.8,36-22.4,81.6,0,120s62.4,60,104,60c20.8,36,59.2,60,104,60s83.2-24,104-60  c41.6,0,81.6-21.6,104-60s20.8-84,0-120C476.7,212,478.3,166.4,455.9,128z" data-original="#FFFFFF" class="" data-old_color="#1AC4FF"/><g>
	<path style="fill:#222222" d="M143.9,316c-22.4,0-44-5.6-64-16.8C19.1,263.2-2.5,184.8,32.7,124c22.4-39.2,65.6-64,111.2-64   c22.4,0,44,5.6,64,16.8c60.8,35.2,82.4,113.6,47.2,174.4C231.9,291.2,189.5,316,143.9,316z M143.9,75.2c-40,0-77.6,21.6-97.6,56   c-31.2,53.6-12.8,122.4,41.6,153.6c16.8,9.6,36.8,15.2,56,15.2c40,0,77.6-21.6,97.6-56c31.2-53.6,12.8-123.2-41.6-153.6   C183.1,80.8,163.9,75.2,143.9,75.2z" data-original="#222222" class="" data-old_color="#2F5068"/>
	<path style="fill:#222222" d="M351.9,436c-22.4,0-44-5.6-64-16.8c-29.6-16.8-50.4-44.8-59.2-77.6s-4-67.2,12.8-96.8   c22.4-39.2,65.6-64,111.2-64c22.4,0,44,5.6,64,16.8c29.6,16.8,50.4,44.8,59.2,77.6c8.8,32.8,4,67.2-12.8,96.8   C439.9,411.2,397.5,436,351.9,436z M351.9,195.2c-40,0-77.6,21.6-97.6,56c-15.2,26.4-19.2,56-11.2,85.6c8,28.8,26.4,53.6,52.8,68   c16.8,9.6,36.8,15.2,56,15.2c40,0,77.6-21.6,97.6-56c15.2-26.4,19.2-56,11.2-85.6c-8-28.8-26.4-53.6-52.8-68   C391.1,200.8,371.9,195.2,351.9,195.2z" data-original="#222222" class="" data-old_color="#2F5068"/>
	<path style="fill:#222222" d="M247.9,256c-70.4,0-128-57.6-128-128S177.5,0,247.9,0s128,57.6,128,128S318.3,256,247.9,256z    M247.9,15.2c-62.4,0-112.8,50.4-112.8,112.8s50.4,112.8,112.8,112.8S360.7,190.4,360.7,128S310.3,15.2,247.9,15.2z" data-original="#222222" class="" data-old_color="#2F5068"/>
	<path style="fill:#222222" d="M247.9,496c-70.4,0-128-57.6-128-128s57.6-128,128-128s128,57.6,128,128S318.3,496,247.9,496z    M247.9,255.2c-62.4,0-112.8,50.4-112.8,112.8s50.4,112.8,112.8,112.8S360.7,430.4,360.7,368S310.3,255.2,247.9,255.2z" data-original="#222222" class="" data-old_color="#2F5068"/>
	<path style="fill:#222222" d="M143.9,436c-45.6,0-88-24.8-111.2-64c-35.2-60.8-13.6-139.2,47.2-174.4c19.2-11.2,41.6-16.8,64-16.8   c45.6,0,88,24.8,111.2,64c35.2,60.8,14.4,139.2-47.2,174.4C187.9,430.4,166.3,436,143.9,436z M143.9,195.2c-20,0-39.2,5.6-56,15.2   c-53.6,31.2-72,100-41.6,153.6c20,34.4,57.6,56,97.6,56c20,0,39.2-5.6,56-15.2c53.6-31.2,72-100,41.6-153.6   C221.5,216.8,183.9,195.2,143.9,195.2z" data-original="#222222" class="" data-old_color="#2F5068"/>
	<path style="fill:#222222" d="M351.9,316c-45.6,0-88-24.8-111.2-64c-16.8-29.6-21.6-64-12.8-96.8s30.4-60.8,59.2-77.6   c19.2-11.2,41.6-16.8,64-16.8c45.6,0,88,24.8,111.2,64c16.8,29.6,21.6,64,12.8,96.8c-8.8,32.8-30.4,60.8-60,77.6   C396.7,309.6,374.3,316,351.9,316z M351.9,75.2c-20,0-39.2,5.6-56,15.2c-26.4,15.2-44.8,39.2-52.8,68c-8,28.8-4,59.2,11.2,85.6   c20,34.4,57.6,56,97.6,56c20,0,39.2-5.6,56-15.2c26.4-15.2,44.8-39.2,52.8-68s4-59.2-11.2-85.6C429.5,96.8,391.9,75.2,351.9,75.2z" data-original="#222222" class="" data-old_color="#2F5068"/>
</g><path style="fill:#9919C9" d="M360.7,128c0-19.2-4.8-36.8-12.8-52c-18.4,0.8-36,5.6-52,15.2s-29.6,22.4-39.2,37.6  c13.6,24.8,17.6,54.4,12.8,82.4c21.6-18.4,48.8-28.8,77.6-30.4C355.9,164.8,360.7,146.4,360.7,128z" data-original="#9919C9" class="" data-old_color="#EA789B"/><path style="fill:#FFFFFF" d="M207.9,76.8c16.8,9.6,29.6,22.4,40,36.8c10.4-14.4,24-27.2,40-36.8c15.2-8.8,32.8-14.4,50.4-16  c-20.8-28-53.6-45.6-90.4-45.6s-69.6,18.4-90.4,45.6C175.1,62.4,191.9,68,207.9,76.8z" data-original="#FFFFFF" class="" data-old_color="#1DFAFF"/><path style="fill:#FFFFFF" d="M157.5,60.8c17.6,1.6,34.4,7.2,50.4,16c16.8,9.6,29.6,22.4,40,36.8c10.4-14.4,24-27.2,40-36.8  c15.2-8.8,32.8-14.4,50.4-16" data-original="#FFFFFF" class="" data-old_color="#1AC4FF"/><path style="fill:#FFFFFF" d="M336.7,196.8c-29.6,4-56,19.2-74.4,42.4C292.7,235.2,319.1,219.2,336.7,196.8z" data-original="#FFFFFF" class="" data-old_color="#FF9100"/><path style="fill:#9919C9" d="M204.7,248c-27.2-9.6-49.6-28-64.8-52c-18.4,0.8-36,5.6-52,15.2c-16,9.6-29.6,22.4-39.2,37.6  c9.6,15.2,22.4,28,39.2,37.6c16,9.6,33.6,14.4,52,15.2C155.1,276,177.5,257.6,204.7,248z" data-original="#9919C9" class="" data-old_color="#EA789B"/><path style="fill:#FFFFFF" d="M46.3,132c-18.4,32-19.2,69.6-5.6,100.8c10.4-13.6,23.2-26.4,39.2-35.2s33.6-14.4,52-16.8  c-7.2-16-12-34.4-12-52.8s4-36,11.2-52C95.9,80,63.9,100.8,46.3,132z" data-original="#FFFFFF" class="" data-old_color="#1DFAFF"/><path style="fill:#FFFFFF" d="M40.7,232.8c10.4-13.6,23.2-26.4,39.2-35.2s33.6-14.4,52-16.8c-7.2-16-12-34.4-12-52.8s4-36,11.2-52" data-original="#FFFFFF" class="" data-old_color="#1AC4FF"/><path style="fill:#FFFFFF" d="M336.7,299.2c-17.6-23.2-44-38.4-74.4-43.2C280.7,280,307.9,295.2,336.7,299.2z" data-original="#FFFFFF" class="" data-old_color="#FFE600"/><path style="fill:#FFFFFF" d="M287.9,419.2c-16-9.6-29.6-21.6-40-36.8c-10.4,14.4-24,27.2-40,36.8c-15.2,8.8-32.8,14.4-50.4,16  c20.8,28,53.6,45.6,90.4,45.6s69.6-18.4,90.4-45.6C320.7,433.6,303.1,428,287.9,419.2z" data-original="#FFFFFF" class="" data-old_color="#1DFAFF"/><path style="fill:#FFFFFF" d="M338.3,435.2c-17.6-1.6-34.4-7.2-50.4-16c-16-9.6-29.6-21.6-40-36.8c-10.4,14.4-24,27.2-40,36.8  c-15.2,8.8-32.8,14.4-50.4,16" data-original="#FFFFFF" class="" data-old_color="#1AC4FF"/><path style="fill:#FFFFFF" d="M79.9,298.4c-16-8.8-28.8-21.6-39.2-35.2c-13.6,32-12.8,68.8,5.6,100.8c17.6,31.2,49.6,52,84.8,56  c-7.2-16-11.2-33.6-11.2-52c0-19.2,4-36.8,12-52.8C113.5,313.6,95.9,308,79.9,298.4z" data-original="#FFFFFF" class="" data-old_color="#1DFAFF"/><path style="fill:#FFFFFF" d="M131.1,420c-7.2-16-11.2-33.6-11.2-52c0-19.2,4-36.8,12-52.8c-18.4-1.6-36-7.2-52-16.8  c-16-8.8-28.8-21.6-39.2-35.2" data-original="#FFFFFF" class="" data-old_color="#1AC4FF"/><path style="fill:#FFFFFF" d="M449.5,364.8c15.2-26.4,19.2-56,11.2-85.6c-1.6-5.6-3.2-10.4-5.6-16c-10.4,14.4-23.2,26.4-39.2,35.2  c-16,8.8-33.6,14.4-52,16.8c7.2,16,12,34.4,12,52.8s-4,36-11.2,52C399.9,416,431.9,395.2,449.5,364.8z" data-original="#FFFFFF" class="" data-old_color="#1DFAFF"/><path style="fill:#FFFFFF" d="M455.1,263.2c-10.4,14.4-23.2,26.4-39.2,35.2c-16,8.8-33.6,14.4-52,16.8c7.2,16,12,34.4,12,52.8  s-4,36-11.2,52" data-original="#FFFFFF" class="" data-old_color="#1AC4FF"/><path style="fill:#A432CE" d="M447.1,248c-9.6-15.2-23.2-28-39.2-37.6s-33.6-14.4-52-15.2c-15.2,24-37.6,42.4-64.8,52  c27.2,9.6,49.6,28,64.8,52.8c18.4-0.8,36-5.6,52-15.2C424.7,276,437.5,263.2,447.1,248z" data-original="#A432CE" class="active-path" data-old_color="#A432CE"/><path style="fill:#9919C9" d="M360.7,368c0-19.2-4.8-36.8-12.8-52.8c-28.8-0.8-56-12-77.6-30.4c4.8,28,0,57.6-12.8,82.4  c9.6,15.2,23.2,28,39.2,37.6c16,8.8,33.6,14.4,52,15.2C355.9,404.8,360.7,387.2,360.7,368z" data-original="#9919C9" class="" data-old_color="#EA789B"/><path style="fill:#A432CE" d="M199.9,405.6c16.8-9.6,29.6-22.4,39.2-37.6c-4.8-8.8-8-17.6-10.4-26.4c-4.8-18.4-5.6-37.6-2.4-56  c-21.6,18.4-48.8,28.8-77.6,30.4c-8,16-12.8,33.6-12.8,52.8c0,19.2,4.8,36.8,12.8,52.8C166.3,420,183.9,414.4,199.9,405.6z" data-original="#A432CE" class="active-path" data-old_color="#A432CE"/><path style="fill:#FFFFFF" d="M415.9,197.6c16,8.8,28.8,20.8,39.2,35.2c2.4-4.8,4-10.4,5.6-16c8-28.8,4-59.2-11.2-85.6  C431.9,100.8,399.9,80,364.7,76c7.2,16,11.2,33.6,11.2,52c0,19.2-4,36.8-12,52.8C382.3,182.4,399.9,188,415.9,197.6z" data-original="#FFFFFF" class="" data-old_color="#1DFAFF"/><path style="fill:#FFFFFF" d="M364.7,76c7.2,16,11.2,33.6,11.2,52c0,19.2-4,36.8-12,52.8c18.4,1.6,36,7.2,52,16.8  c16,8.8,28.8,20.8,39.2,35.2" data-original="#FFFFFF" class="" data-old_color="#1AC4FF"/><g>
	<path style="fill:#FFFFFF" d="M159.1,299.2c29.6-4,56-19.2,74.4-43.2C203.1,260.8,176.7,276.8,159.1,299.2z" data-original="#FFFFFF" class="" data-old_color="#FFE600"/>
	<path style="fill:#FFFFFF" d="M247.9,145.6c-1.6,4-3.2,8.8-4.8,13.6c-6.4,24-4.8,48.8,4.8,72C259.1,202.4,259.1,172,247.9,145.6z" data-original="#FFFFFF" class="" data-old_color="#FFE600"/>
</g><path style="fill:#A432CE" d="M135.1,128c0,19.2,4.8,36.8,12.8,52.8c28.8,0.8,56,12,77.6,30.4c-3.2-18.4-2.4-36.8,2.4-56  c2.4-9.6,6.4-18.4,10.4-26.4c-9.6-15.2-22.4-28-39.2-37.6c-16-8.8-33.6-14.4-52-15.2C139.9,91.2,135.1,108.8,135.1,128z" data-original="#A432CE" class="active-path" data-old_color="#A432CE"/><g>
	<path style="fill:#FFFFFF" d="M243.1,337.6c1.6,4.8,3.2,8.8,4.8,13.6c11.2-26.4,11.2-57.6,0-85.6   C238.3,288,236.7,312.8,243.1,337.6z" data-original="#FFFFFF" class="" data-old_color="#FF9100"/>
	<path style="fill:#FFFFFF" d="M159.1,196.8c17.6,23.2,44,38.4,74.4,42.4C215.1,216,187.9,200.8,159.1,196.8z" data-original="#FFFFFF" class="" data-old_color="#FF9100"/>
</g></g></g> </svg>
