<?xml version="1.0"?>
<svg xmlns="http://www.w3.org/2000/svg" xmlns:xlink="http://www.w3.org/1999/xlink" version="1.1" id="Layer_1" x="0px" y="0px" viewBox="0 0 512 512" style="enable-background:new 0 0 512 512;" xml:space="preserve" width="512px" height="512px" class=""><g><g><path style="fill:#A432CE" d="M145.415,191.356c-32.899,42.695-53.539,99.373-53.539,147.45  c0,90.794,73.603,164.397,164.397,164.397S420.67,429.6,420.67,338.806c0-48.077-20.64-104.755-53.539-147.45H145.415z" data-original="#A432CE" class="" data-old_color="#FCCA5F"/><path style="fill:#9919C9" d="M382.846,338.806c0-48.077-15.892-104.755-41.221-147.45h25.506  c32.899,42.695,53.539,99.373,53.539,147.45c0,90.794-73.603,164.397-164.397,164.397  C326.178,503.203,382.846,429.6,382.846,338.806z" data-original="#9919C9" class="" data-old_color="#E8B459"/><path style="fill:#CCCCCC;" d="M154.753,191.356h203.04c9.352,0,16.934-7.581,16.934-16.934l0,0  c0-22.123-17.934-40.057-40.057-40.057H177.876c-22.123,0-40.057,17.934-40.057,40.057l0,0  C137.819,183.775,145.4,191.356,154.753,191.356z" data-original="#CCCCCC" class=""/><path style="fill:#999999;" d="M334.67,134.365h-54.673c22.123,0,40.057,17.934,40.057,40.057l0,0  c0,9.352-7.581,16.934-16.934,16.934h54.673c9.352,0,16.934-7.581,16.934-16.934l0,0C374.727,152.3,356.793,134.365,334.67,134.365z  " data-original="#999999" class=""/><path style="fill:#999999" d="M296.73,134.365l21.4-85.323c1.376-5.53,5.398-10.018,10.736-12.028l76.599-28.725l12.184,32.506  l-68.077,25.529l-17.067,68.041" data-original="#999999" class="" data-old_color="#F75469"/><circle style="fill:#9919C9" cx="256.278" cy="347.695" r="86.178" data-original="#9919C9" class="" data-old_color="#E8B459"/><path d="M118.413,234.209c1.291,0.696,2.679,1.026,4.048,1.026c3.039,0,5.982-1.626,7.525-4.488  c5.938-11.007,12.577-21.428,19.752-31.044c1.538,0.29,3.121,0.45,4.742,0.45h203.04c14.047,0,25.476-11.429,25.476-25.476  c0-23.866-17.297-43.755-40.01-47.824l13.508-53.849l63.88-23.956c4.417-1.656,6.655-6.579,5-10.997L413.19,5.544  c-0.795-2.122-2.401-3.841-4.464-4.778c-2.063-0.937-4.414-1.018-6.535-0.222l-76.61,28.729  c-7.977,3.004-13.963,9.718-16.011,17.944l-14.783,58.936c-1.147,4.577,1.632,9.217,6.208,10.365  c4.58,1.145,9.217-1.633,10.365-6.208l14.784-58.951c0.695-2.793,2.736-5.072,5.446-6.094l68.599-25.725l6.188,16.509l-60.08,22.53  c-2.628,0.985-4.604,3.198-5.286,5.921l-15.446,61.577H177.603c-26.798,0-48.598,21.802-48.598,48.599  c0,6.2,2.228,11.888,5.923,16.31c-7.244,9.86-13.952,20.481-19.976,31.649C112.71,226.787,114.26,231.97,118.413,234.209z   M177.603,143.162h156.795c17.377,0,31.513,14.137,31.513,31.514c0,4.628-3.764,8.391-8.391,8.391H154.48  c-4.627,0-8.391-3.764-8.391-8.391c0-1.522,0.115-3.018,0.325-4.483h146.039c4.718,0,8.543-3.825,8.543-8.543  s-3.825-8.543-8.543-8.543H154.657C160.408,146.993,168.565,143.162,177.603,143.162z" data-original="#222222" class="active-path" style="fill:#222222" data-old_color="#000000"/><path d="M386.729,205.073c-2.539-3.976-7.822-5.14-11.798-2.602c-3.976,2.54-5.14,7.822-2.602,11.798  c24.748,38.748,39.524,85.399,39.524,124.79c0,85.939-69.916,155.855-155.855,155.855S100.144,424.998,100.144,339.06  c0-24.476,5.582-51.701,16.144-78.729c1.718-4.394-0.452-9.349-4.846-11.067c-4.394-1.715-9.349,0.454-11.066,4.848  c-11.329,28.99-17.316,58.364-17.316,84.948C83.06,434.419,160.641,512,256,512s172.94-77.58,172.94-172.94  C428.94,296.543,413.16,246.453,386.729,205.073z" data-original="#222222" class="active-path" style="fill:#222222" data-old_color="#000000"/><path d="M331.943,389.596c4.337,1.851,9.358-0.166,11.21-4.505c5.018-11.761,7.563-24.258,7.563-37.143  c0-52.227-42.49-94.717-94.717-94.717s-94.716,42.49-94.716,94.717s42.49,94.716,94.716,94.716  c26.862,0,52.565-11.474,70.516-31.481c3.152-3.512,2.859-8.913-0.653-12.063c-3.512-3.152-8.913-2.86-12.063,0.653  c-14.716,16.4-35.783,25.805-57.8,25.805c-42.806,0-77.631-34.825-77.631-77.631s34.825-77.632,77.631-77.632  c42.805,0,77.632,34.825,77.632,77.632c0,10.568-2.083,20.809-6.193,30.438C325.587,382.725,327.604,387.745,331.943,389.596z" data-original="#222222" class="active-path" style="fill:#222222" data-old_color="#000000"/><path d="M315.825,170.193h27.17c4.718,0,8.543-3.825,8.543-8.543s-3.825-8.543-8.543-8.543h-27.17c-4.718,0-8.543,3.825-8.543,8.543  S311.108,170.193,315.825,170.193z" data-original="#222222" class="active-path" style="fill:#222222" data-old_color="#000000"/><path d="M256,301.106c-2.265,0-4.439,0.9-6.04,2.502l-38.299,38.299c-3.336,3.336-3.336,8.745,0,12.08l38.299,38.299  c1.668,1.669,3.854,2.502,6.04,2.502c2.186,0,4.373-0.834,6.04-2.502l38.299-38.299c1.603-1.601,2.502-3.775,2.502-6.04  c0-2.266-0.9-4.439-2.502-6.04l-38.299-38.299C260.439,302.005,258.265,301.106,256,301.106z M256,374.166l-26.219-26.219  L256,321.729l26.219,26.219L256,374.166z" data-original="#222222" class="active-path" style="fill:#222222" data-old_color="#000000"/></g></g> </svg>
