<?xml version="1.0" standalone="no"?>
<!DOCTYPE svg PUBLIC "-//W3C//DTD SVG 20010904//EN"
 "http://www.w3.org/TR/2001/REC-SVG-20010904/DTD/svg10.dtd">
<svg version="1.0" xmlns="http://www.w3.org/2000/svg"
 width="700.000000pt" height="700.000000pt" viewBox="0 0 700.000000 700.000000"
 preserveAspectRatio="xMidYMid meet">
<metadata>
Created by potrace 1.11, written by Peter Selinger 2001-2013
</metadata>
<g transform="translate(0.000000,700.000000) scale(0.100000,-0.100000)"
fill="#000000" stroke="none">
<path d="M5517 6993 c-53 -13 -1087 -407 -1122 -428 -53 -30 -112 -96 -135
-149 -33 -73 -233 -893 -226 -922 4 -15 20 -39 36 -55 40 -40 105 -41 147 -1
27 25 37 58 123 402 112 454 123 490 152 517 21 19 944 373 973 373 10 0 100
-219 93 -225 -2 -1 -194 -74 -427 -161 -343 -129 -428 -164 -444 -185 -11 -16
-59 -188 -126 -455 l-107 -429 -1080 -5 c-1206 -6 -1107 0 -1259 -78 -95 -49
-217 -171 -268 -269 -95 -181 -102 -398 -16 -507 l20 -25 -65 -93 c-72 -105
-164 -254 -202 -330 -32 -63 -27 -108 18 -150 24 -22 40 -28 75 -28 59 0 82
25 182 195 42 72 101 165 131 208 l55 77 1457 -1 c1660 -2 1513 -10 1613 86
76 73 107 141 113 240 15 290 -191 572 -476 651 -34 9 -62 22 -62 28 0 6 41
173 91 371 l91 361 451 169 c424 160 453 172 474 204 13 19 23 44 23 56 0 22
-158 453 -186 506 -20 40 -73 63 -117 52z m-802 -1972 c118 -47 197 -119 247
-227 31 -66 50 -161 41 -208 -8 -42 -57 -84 -106 -91 -23 -3 -668 -5 -1434 -3
l-1392 3 -28 21 c-34 25 -56 87 -48 132 l6 32 1020 0 1021 0 34 34 c28 28 34
42 34 76 0 34 -6 48 -34 76 l-34 34 -961 0 c-584 0 -961 4 -961 9 0 16 72 70
127 96 28 14 76 29 105 34 30 5 549 8 1178 7 l1125 -1 60 -24z"/>
<path d="M4265 4888 c-37 -20 -55 -51 -55 -98 0 -48 18 -79 57 -99 14 -7 100
-11 243 -11 l222 0 34 34 c28 28 34 42 34 76 0 34 -6 48 -34 76 l-34 34 -223
0 c-144 0 -231 -5 -244 -12z"/>
<path d="M5145 4235 c-22 -8 -41 -15 -41 -15 -7 -1 -34 -73 -34 -92 0 -13 29
-73 65 -133 397 -665 572 -1430 460 -2008 -131 -680 -549 -1231 -1164 -1536
-244 -120 -500 -189 -787 -213 -257 -21 -552 18 -818 107 -636 212 -1142 721
-1350 1356 -162 495 -139 1016 69 1617 51 145 55 166 45 196 -17 51 -51 78
-102 78 -85 2 -102 -22 -182 -264 -244 -737 -218 -1402 79 -2003 279 -567 765
-993 1360 -1194 266 -89 475 -124 755 -124 280 0 489 35 755 124 760 256 1339
886 1535 1669 98 390 91 799 -20 1257 -83 342 -239 725 -423 1033 -90 150
-122 173 -202 145z"/>
<path d="M3355 3529 c-473 -56 -878 -366 -1055 -807 -61 -151 -81 -251 -87
-437 -6 -187 8 -291 62 -452 66 -197 159 -346 310 -499 187 -188 402 -305 665
-361 119 -25 382 -25 500 1 247 54 457 162 633 326 87 81 107 112 107 166 0
28 -8 44 -34 70 -29 29 -41 34 -80 34 -44 0 -51 -4 -131 -79 -95 -90 -169
-143 -270 -193 -296 -148 -625 -153 -921 -13 -126 59 -204 114 -304 214 -213
214 -321 493 -307 791 22 436 306 818 710 953 138 47 236 60 392 54 188 -8
333 -49 484 -136 440 -258 638 -791 470 -1267 -32 -92 -36 -132 -15 -173 18
-33 54 -51 107 -51 74 0 111 61 166 270 35 132 43 363 18 511 -80 482 -415
871 -880 1023 -157 52 -379 74 -540 55z"/>
<path d="M3167 2603 c-153 -153 -285 -290 -293 -305 -8 -15 -14 -44 -14 -65 0
-36 12 -50 293 -330 191 -191 301 -294 320 -298 15 -4 39 -4 55 0 17 4 127
107 314 293 302 301 310 311 294 379 -5 19 -105 126 -295 316 l-287 287 -54 0
-54 0 -279 -277z m511 -177 c95 -96 172 -178 172 -183 0 -4 -79 -87 -175 -183
l-175 -175 -175 175 c-96 96 -175 179 -175 183 0 9 341 357 350 357 3 0 83
-78 178 -174z"/>
</g>
</svg>
